<?xml version="1.0" standalone="no"?>
<!DOCTYPE svg PUBLIC "-//W3C//DTD SVG 20010904//EN"
 "http://www.w3.org/TR/2001/REC-SVG-20010904/DTD/svg10.dtd">
<svg version="1.0" xmlns="http://www.w3.org/2000/svg"
 width="330.000000pt" height="224.000000pt" viewBox="0 0 330.000000 224.000000"
 preserveAspectRatio="xMidYMid meet">
<metadata>
Created by potrace 1.16, written by Peter Selinger 2001-2019
</metadata>
<g transform="translate(0.000000,224.000000) scale(0.100000,-0.100000)"
fill="#000000" stroke="none">
<path d="M1932 2228 c-5 -7 -13 -28 -17 -46 -4 -19 -19 -48 -34 -65 -57 -66
-61 -78 -61 -160 0 -90 -12 -120 -76 -189 -24 -26 -44 -52 -44 -57 0 -5 -12
-11 -27 -13 -27 -3 -28 -5 -25 -55 3 -61 -10 -68 -49 -27 -25 26 -30 26 -92 0
l-37 -16 -21 35 c-14 23 -28 35 -43 35 -28 0 -46 18 -46 47 0 35 -31 45 -114
37 -41 -4 -78 -9 -83 -13 -16 -10 -73 -130 -73 -152 0 -32 -27 -87 -49 -98
-16 -9 -32 -6 -77 14 -62 28 -86 30 -132 14 -26 -9 -35 -7 -61 12 -27 20 -34
21 -75 10 -25 -6 -56 -11 -70 -11 -23 0 -26 -4 -26 -33 0 -43 -20 -69 -88
-116 -38 -26 -72 -40 -103 -43 -52 -6 -147 -46 -197 -84 -31 -24 -148 -174
-192 -247 -22 -36 -26 -97 -8 -115 7 -7 25 -12 40 -12 16 0 31 -7 34 -15 4 -8
14 -15 24 -15 9 0 27 -9 40 -20 13 -11 34 -20 47 -20 17 0 23 -6 23 -23 0 -27
25 -53 55 -58 23 -4 64 -80 65 -119 0 -14 -9 -43 -19 -65 -26 -55 -44 -139
-37 -173 5 -22 1 -33 -24 -57 -23 -22 -30 -38 -31 -69 0 -23 -4 -63 -9 -91 -5
-32 -4 -65 3 -92 10 -38 15 -43 39 -43 31 0 36 18 18 64 -10 26 1 45 39 65 26
14 141 -16 172 -45 44 -42 78 -33 153 40 36 35 86 72 110 82 44 18 44 18 48
76 3 38 11 68 25 86 20 27 22 27 124 24 149 -4 292 13 395 48 77 26 92 29 128
19 68 -19 226 -41 311 -44 44 -1 114 -7 155 -13 41 -6 106 -12 143 -12 56 0
74 -4 100 -24 83 -62 152 -80 206 -52 26 14 28 13 55 -20 30 -38 62 -44 100
-19 21 14 26 13 64 -15 23 -17 42 -34 42 -39 0 -6 21 -13 48 -17 26 -4 56 -13
67 -20 23 -16 61 -18 70 -4 7 12 124 13 143 2 7 -5 15 -32 19 -60 5 -46 8 -51
32 -54 23 -3 26 -7 23 -39 l-3 -37 73 -4 c40 -3 85 0 101 5 27 9 36 34 18 53
-5 5 -12 39 -16 75 l-7 66 31 11 c37 13 39 31 10 104 -27 68 -26 104 4 137 36
39 41 73 15 106 -14 18 -20 38 -18 59 1 17 3 72 4 123 1 110 -4 117 -111 151
-73 23 -103 48 -103 84 0 10 -5 18 -10 18 -6 0 -30 30 -54 67 -24 38 -55 79
-69 91 -24 23 -25 29 -24 135 0 100 -2 116 -22 150 -26 41 -32 43 -64 22 -32
-20 -64 -2 -98 57 -60 102 -150 152 -157 87 -4 -38 -38 -67 -60 -52 -17 10
-17 16 -5 95 4 29 -1 48 -22 84 -34 58 -28 74 28 74 27 0 49 6 57 14 15 19 9
57 -10 67 -26 13 -113 41 -147 46 -50 8 -45 45 12 99 54 50 59 82 18 123 -24
23 -43 29 -123 40 -52 7 -119 20 -147 28 -49 15 -54 15 -71 0 -23 -21 -41 -21
-66 -2 -24 18 -70 19 -84 3z"/>
</g>
</svg>
