<?xml version="1.0" standalone="no"?>
<!DOCTYPE svg PUBLIC "-//W3C//DTD SVG 20010904//EN"
 "http://www.w3.org/TR/2001/REC-SVG-20010904/DTD/svg10.dtd">
<svg version="1.0" xmlns="http://www.w3.org/2000/svg"
 width="352.000000pt" height="232.000000pt" viewBox="0 0 352.000000 232.000000"
 preserveAspectRatio="xMidYMid meet">
<metadata>
Created by potrace 1.16, written by Peter Selinger 2001-2019
</metadata>
<g transform="translate(0.000000,232.000000) scale(0.100000,-0.100000)"
fill="#000000" stroke="none">
<path d="M1265 2281 c-88 -43 -101 -54 -107 -91 -2 -15 -14 -30 -30 -38 -16
-7 -28 -18 -28 -24 0 -6 -18 -27 -40 -47 -36 -33 -40 -43 -51 -111 -6 -41 -16
-78 -23 -82 -18 -12 -97 2 -139 25 -29 16 -40 18 -49 9 -16 -16 -57 -15 -88 3
-14 8 -50 14 -81 15 -63 0 -81 -13 -118 -87 -28 -55 -55 -73 -114 -73 -76 0
-87 -10 -87 -80 0 -51 -3 -61 -26 -77 -22 -16 -28 -33 -39 -101 -8 -49 -22
-93 -34 -111 -28 -38 -27 -41 13 -73 30 -24 44 -28 98 -28 63 0 88 -11 88 -37
0 -6 -23 -43 -51 -80 -41 -56 -57 -69 -87 -76 -20 -4 -47 -12 -58 -18 -16 -8
-27 -8 -42 0 -52 28 -132 0 -132 -46 0 -10 -9 -33 -20 -51 -26 -42 -25 -54 6
-83 25 -23 30 -24 161 -22 122 2 138 0 161 -17 13 -11 31 -20 38 -20 23 0 44
31 44 64 0 37 21 61 45 52 8 -3 15 -14 15 -25 0 -24 36 -51 67 -51 12 0 38 7
57 16 66 32 141 -16 157 -101 11 -59 17 -66 66 -74 29 -5 39 -11 41 -29 2 -15
16 -27 40 -38 20 -8 47 -25 60 -37 40 -37 85 -110 92 -147 5 -33 8 -35 40 -33
19 1 68 2 109 2 70 0 76 2 107 32 42 41 62 36 141 -36 34 -30 68 -55 76 -55 9
0 17 15 21 43 4 23 14 53 22 65 14 21 21 23 52 17 62 -11 79 -29 89 -87 8 -51
10 -53 38 -50 17 1 50 4 75 5 38 2 47 6 58 30 11 22 20 27 51 27 26 0 53 10
86 32 45 30 49 31 59 14 24 -40 48 -66 62 -66 8 0 32 12 54 26 28 19 47 24 65
20 30 -8 31 -17 4 -92 -16 -44 -22 -86 -23 -169 -1 -85 -6 -118 -20 -147 -28
-55 -17 -72 42 -63 68 10 77 18 91 80 13 57 36 81 52 54 31 -55 30 -54 102
-20 37 17 73 31 80 31 8 0 28 -18 45 -39 33 -41 68 -59 83 -44 5 5 12 33 16
61 6 53 20 65 43 37 19 -23 44 -18 68 15 27 37 58 39 74 5 8 -18 8 -31 -2 -54
-6 -16 -9 -35 -5 -40 11 -19 51 -12 75 14 l24 25 22 -21 c35 -33 54 -19 54 39
0 42 4 51 30 70 48 36 81 38 109 8 28 -30 57 -34 65 -8 4 9 15 28 25 41 l18
24 31 -21 c30 -22 72 -30 72 -13 0 5 11 19 25 32 25 24 33 49 15 49 -5 0 -14
9 -20 19 -8 15 -3 32 21 77 41 79 37 103 -23 123 -26 9 -61 30 -78 48 -17 17
-60 46 -95 65 -36 18 -65 39 -65 46 0 7 9 31 21 53 15 31 18 47 11 67 -8 24
-4 32 40 73 34 32 48 53 48 72 0 17 5 27 15 27 18 0 18 0 4 75 -8 41 -18 64
-35 77 -24 19 -86 123 -99 165 -5 19 2 28 40 55 37 26 45 37 40 53 -4 11 -12
79 -18 150 l-12 130 -58 -3 c-55 -2 -61 0 -108 39 -27 23 -49 49 -49 58 0 9
-13 23 -29 33 -20 11 -31 26 -33 44 -2 24 -11 31 -53 46 -27 10 -60 28 -71 42
-25 28 -75 56 -101 56 -12 0 -23 -12 -30 -31 -10 -27 -16 -30 -35 -24 -46 15
-85 17 -124 6 -33 -9 -43 -18 -58 -51 -17 -38 -19 -40 -51 -34 -31 6 -39 1
-93 -50 -32 -31 -68 -56 -79 -56 -11 0 -41 19 -67 42 -47 41 -48 42 -41 87 3
25 15 65 26 88 33 69 26 81 -74 126 -146 64 -196 62 -305 -16 -34 -25 -47 -29
-60 -21 -27 17 -62 75 -62 103 -1 46 -20 58 -102 66 -69 6 -80 5 -106 -14 -17
-11 -34 -21 -39 -21 -13 1 -59 43 -78 73 -23 36 -44 34 -140 -12z"/>
</g>
</svg>
