<?xml version="1.0" standalone="no"?>
<!DOCTYPE svg PUBLIC "-//W3C//DTD SVG 20010904//EN"
 "http://www.w3.org/TR/2001/REC-SVG-20010904/DTD/svg10.dtd">
<svg version="1.0" xmlns="http://www.w3.org/2000/svg"
 width="339.000000pt" height="255.000000pt" viewBox="0 0 339.000000 255.000000"
 preserveAspectRatio="xMidYMid meet">
<metadata>
Created by potrace 1.16, written by Peter Selinger 2001-2019
</metadata>
<g transform="translate(0.000000,255.000000) scale(0.100000,-0.100000)"
fill="#000000" stroke="none">
<path d="M1830 2493 c-22 -60 -22 -58 15 -123 31 -53 10 -90 -49 -90 -53 0
-44 -110 14 -165 32 -31 39 -65 16 -85 -12 -9 -19 -6 -37 14 -19 22 -31 26
-76 26 -30 0 -67 -7 -84 -16 -19 -9 -49 -14 -82 -12 -48 3 -52 5 -55 31 -2 18
-9 27 -20 27 -27 -1 -49 -23 -79 -81 -22 -43 -34 -55 -55 -57 -29 -3 -47 -22
-90 -95 -23 -40 -32 -46 -65 -49 -33 -3 -40 -8 -56 -40 -16 -36 -28 -43 -69
-39 -9 1 -33 -5 -53 -13 -32 -14 -40 -14 -65 -1 -39 20 -67 19 -75 -4 -3 -10
-5 -52 -3 -94 2 -85 -3 -94 -67 -132 -57 -33 -87 -32 -140 5 -63 43 -80 40
-106 -20 -29 -69 -42 -77 -75 -51 -22 17 -41 21 -109 21 -97 0 -109 8 -99 69
5 32 3 46 -11 61 -28 31 -64 24 -132 -26 -57 -42 -63 -50 -68 -92 -8 -62 -21
-92 -40 -92 -21 0 -19 -43 3 -63 9 -8 50 -25 90 -37 92 -28 105 -46 106 -143
0 -40 -4 -89 -8 -110 -7 -32 -5 -43 13 -67 29 -39 27 -63 -9 -103 -36 -42 -37
-67 -6 -150 25 -68 24 -77 -11 -96 -20 -10 -23 -19 -23 -79 0 -88 14 -108 81
-117 62 -9 95 -36 79 -65 -5 -10 -15 -22 -20 -25 -19 -12 -10 -52 15 -69 36
-24 51 -20 75 21 19 33 20 42 10 75 -13 47 -8 58 31 58 22 0 38 -9 57 -31 24
-30 28 -31 78 -25 75 9 82 13 116 72 40 73 85 73 71 1 -4 -19 3 -37 27 -67 37
-47 50 -49 94 -15 23 17 46 25 74 25 51 0 78 -24 87 -77 10 -56 12 -60 39 -79
34 -22 56 -12 56 26 0 24 12 41 52 80 29 28 64 53 78 56 55 13 61 16 75 45 17
31 49 39 77 16 14 -11 52 -71 90 -141 9 -17 17 -50 18 -72 0 -58 18 -71 73
-53 23 8 46 13 51 11 20 -7 48 12 58 38 8 24 20 32 63 45 78 22 100 20 125
-15 29 -40 73 -41 126 0 34 26 47 29 108 30 54 0 81 -6 123 -26 56 -26 67 -42
78 -107 5 -30 14 -43 37 -55 17 -9 50 -32 74 -50 51 -37 74 -41 74 -12 0 12
11 32 25 46 31 31 33 76 5 121 -11 18 -17 39 -14 47 3 8 -2 28 -10 45 -9 16
-16 39 -16 51 0 11 -6 20 -14 20 -19 0 -28 72 -9 83 7 4 13 25 13 45 0 42 7
56 33 65 24 9 33 36 19 57 -9 14 -8 21 3 30 8 7 15 22 15 34 0 25 55 116 71
116 5 0 16 15 24 34 8 19 24 38 35 41 12 4 25 16 31 28 5 12 13 29 18 37 6 8
12 27 15 41 5 23 13 27 75 39 38 7 82 10 97 6 80 -20 80 -20 103 17 12 19 28
38 37 41 9 3 62 6 118 6 57 0 124 3 150 6 45 7 46 7 46 43 0 31 -7 42 -45 74
-34 28 -45 45 -45 66 0 20 -7 31 -25 39 -28 13 -32 34 -10 52 21 18 19 35 -20
130 -40 99 -42 116 -15 125 25 8 26 27 2 41 -9 6 -30 37 -46 68 -27 53 -28 58
-12 75 19 21 22 101 5 134 -7 12 -37 50 -68 84 -31 33 -78 87 -105 118 l-49
56 23 24 c22 23 22 41 4 108 -7 21 -36 22 -75 1 -17 -8 -37 -13 -44 -10 -8 3
-19 32 -25 64 -11 52 -19 67 -66 113 -40 40 -58 51 -68 44 -64 -47 -58 -45
-108 -27 -46 16 -46 16 -66 -8 -16 -20 -22 -22 -35 -12 -8 7 -20 26 -27 42
-15 35 -31 37 -69 9 -24 -17 -32 -19 -51 -9 -30 16 -46 7 -53 -29 -7 -32 -47
-57 -113 -68 -28 -5 -33 0 -69 51 -21 31 -45 56 -54 56 -9 0 -29 -9 -46 -20
-41 -27 -58 -25 -98 10 -49 43 -62 39 -87 -27z"/>
</g>
</svg>
