<?xml version="1.0" standalone="no"?>
<!DOCTYPE svg PUBLIC "-//W3C//DTD SVG 20010904//EN"
 "http://www.w3.org/TR/2001/REC-SVG-20010904/DTD/svg10.dtd">
<svg version="1.0" xmlns="http://www.w3.org/2000/svg"
 width="230.000000pt" height="270.000000pt" viewBox="0 0 230.000000 270.000000"
 preserveAspectRatio="xMidYMid meet">
<metadata>
Created by potrace 1.16, written by Peter Selinger 2001-2019
</metadata>
<g transform="translate(0.000000,270.000000) scale(0.100000,-0.100000)"
fill="#000000" stroke="none">
<path d="M1937 2670 c-18 -30 -19 -31 -78 -24 -54 6 -63 4 -100 -22 -50 -34
-69 -61 -69 -95 0 -15 -12 -42 -27 -59 l-26 -31 6 -130 6 -130 -26 -25 c-14
-13 -30 -24 -34 -24 -18 0 -69 -84 -69 -114 0 -17 -7 -44 -15 -60 -28 -54 -10
-93 37 -81 19 5 37 -3 76 -35 58 -45 63 -63 36 -130 -13 -32 -23 -42 -53 -50
-51 -14 -104 -12 -126 4 -18 13 -18 15 -2 58 22 56 21 87 -2 116 -24 28 -29
28 -82 -3 -31 -17 -59 -25 -94 -25 l-50 0 -30 -63 c-18 -37 -40 -67 -55 -74
-14 -7 -60 -13 -103 -13 -69 0 -81 -3 -102 -25 -28 -28 -31 -53 -10 -81 22
-29 19 -61 -7 -68 -45 -12 -77 -6 -88 14 -15 28 -32 25 -66 -11 -16 -18 -48
-40 -70 -50 -23 -10 -47 -26 -54 -34 -25 -30 -87 -7 -131 49 -24 30 -48 31
-136 6 -37 -11 -47 -10 -86 9 -58 28 -72 27 -99 -9 l-22 -30 -22 21 c-18 17
-38 22 -94 24 l-72 3 7 -41 c4 -23 11 -71 15 -107 31 -236 62 -393 95 -477 14
-35 33 -100 44 -145 23 -101 42 -151 64 -176 21 -23 21 -41 2 -66 -19 -25 -19
-75 1 -101 12 -16 13 -43 9 -148 -3 -71 -3 -138 0 -148 7 -21 48 -25 102 -10
26 8 35 6 49 -10 18 -20 67 -25 106 -10 18 7 38 3 78 -15 30 -13 67 -23 82
-24 33 0 68 41 68 81 0 35 65 166 89 178 9 5 45 11 80 13 56 2 65 0 82 -21 10
-13 19 -32 19 -42 0 -13 7 -19 21 -19 32 0 56 -17 63 -45 8 -30 38 -33 92 -8
35 17 36 17 55 -5 12 -15 27 -22 41 -20 21 3 23 7 20 51 -3 44 -2 47 21 47 18
0 32 10 47 35 12 19 30 40 41 45 38 21 59 83 59 174 l0 85 45 51 c25 28 47 63
51 78 12 55 16 62 35 73 16 8 28 6 55 -10 43 -25 70 -27 82 -4 9 16 14 16 83
0 124 -29 254 -47 257 -36 2 5 30 23 62 39 78 39 90 86 29 105 -19 6 -19 7 1
32 25 32 26 85 3 105 -10 9 -37 25 -60 37 -32 16 -49 34 -68 71 -14 27 -38 71
-55 97 -16 26 -30 55 -30 64 0 31 43 69 105 94 39 15 61 30 63 42 1 10 -16 44
-39 76 -36 50 -45 58 -65 53 -78 -20 -73 -21 -89 18 -8 19 -15 46 -15 60 0 15
-17 44 -40 71 -22 25 -40 50 -40 55 0 16 23 24 65 21 30 -1 49 4 69 20 23 18
31 20 52 10 69 -31 134 1 134 67 0 46 26 90 80 133 l42 34 -6 55 c-6 51 -4 58
19 80 20 19 25 33 25 72 0 44 -2 48 -25 48 -30 0 -54 33 -62 86 -12 79 -45
118 -109 129 -49 8 -64 32 -64 103 0 101 -64 158 -103 92z"/>
</g>
</svg>
