<?xml version="1.0" standalone="no"?>
<!DOCTYPE svg PUBLIC "-//W3C//DTD SVG 20010904//EN"
 "http://www.w3.org/TR/2001/REC-SVG-20010904/DTD/svg10.dtd">
<svg version="1.0" xmlns="http://www.w3.org/2000/svg"
 width="249.000000pt" height="324.000000pt" viewBox="0 0 249.000000 324.000000"
 preserveAspectRatio="xMidYMid meet">
<metadata>
Created by potrace 1.16, written by Peter Selinger 2001-2019
</metadata>
<g transform="translate(0.000000,324.000000) scale(0.100000,-0.100000)"
fill="#000000" stroke="none">
<path d="M587 3233 c-4 -3 -7 -20 -7 -37 0 -35 -24 -76 -44 -76 -7 0 -25 9
-39 20 -23 18 -32 19 -115 11 -49 -5 -108 -7 -132 -4 l-43 6 7 -84 c4 -46 12
-90 18 -96 6 -7 26 -13 45 -13 44 0 88 -44 104 -103 5 -23 13 -53 17 -67 4
-15 20 -31 39 -39 18 -8 34 -24 37 -37 7 -26 -9 -74 -23 -74 -23 0 -34 -42
-21 -84 l12 -40 -45 -43 c-61 -58 -77 -82 -77 -118 0 -67 -61 -121 -108 -96
-29 16 -59 14 -89 -6 -14 -10 -46 -17 -72 -18 -42 0 -46 -2 -49 -25 -2 -19 7
-36 32 -62 35 -36 39 -46 51 -120 7 -42 37 -58 73 -39 35 18 46 13 85 -43 44
-65 46 -83 10 -92 -74 -18 -143 -70 -143 -109 0 -17 40 -94 107 -202 7 -13 36
-34 63 -48 58 -29 74 -53 61 -88 -6 -14 -15 -28 -20 -32 -20 -11 -11 -42 14
-53 45 -21 26 -53 -56 -95 -50 -25 -60 -52 -34 -91 20 -30 13 -46 -35 -78 -31
-21 -35 -30 -38 -71 -3 -45 -2 -47 23 -47 14 0 38 -6 53 -14 15 -7 44 -16 64
-20 40 -7 62 -33 48 -56 -5 -8 -30 -16 -57 -19 -43 -5 -48 -9 -51 -34 -2 -15
6 -42 16 -60 27 -43 29 -65 13 -115 -17 -51 -7 -64 44 -60 24 2 31 8 33 28 5
30 20 50 37 50 19 0 100 -80 119 -117 8 -17 23 -38 31 -47 19 -19 66 -21 82
-5 15 15 43 4 43 -16 0 -9 7 -26 15 -39 12 -17 15 -48 13 -129 l-3 -106 41
-43 c23 -24 51 -62 63 -84 21 -43 36 -54 77 -54 28 0 34 11 43 82 6 51 8 53
76 100 38 26 73 48 78 48 4 0 18 -11 31 -23 20 -20 23 -31 19 -69 -7 -59 10
-69 107 -67 54 1 75 -2 89 -15 34 -30 63 -17 91 41 14 29 30 55 36 57 6 2 35
-11 64 -30 30 -19 65 -34 78 -34 20 0 109 45 132 67 3 3 5 44 6 91 0 48 4 97
8 110 7 20 5 22 -21 22 -38 0 -83 35 -83 63 0 29 26 66 75 108 52 44 52 44 59
99 4 26 15 59 26 73 25 31 25 63 1 112 -13 27 -28 41 -52 49 -23 8 -35 19 -39
36 -5 23 -12 26 -72 31 -67 6 -99 22 -137 71 -33 41 6 93 39 53 14 -17 95 -21
105 -5 3 6 21 10 40 10 41 0 51 22 36 77 -6 21 -11 61 -11 89 0 34 -5 56 -15
64 -22 18 -18 30 8 30 14 0 28 11 39 30 15 26 23 30 57 30 34 0 43 4 55 28 24
46 43 58 64 38 24 -21 38 -20 69 4 35 28 44 25 76 -20 31 -44 52 -51 60 -20 3
13 14 20 29 20 32 0 48 18 48 55 0 45 14 54 75 48 47 -5 56 -2 95 26 24 17 49
31 56 31 7 0 14 10 16 22 2 13 15 29 30 36 37 17 38 52 2 52 -53 0 -64 15 -64
89 0 53 -4 74 -20 94 -28 35 -25 47 15 82 31 27 35 36 39 95 3 36 9 91 12 123
l7 57 -32 0 c-41 0 -48 21 -23 62 18 29 20 45 15 133 -5 91 -3 107 22 173 14
41 24 80 21 88 -8 21 -76 17 -111 -6 -41 -27 -50 -25 -75 15 -26 42 -50 45
-101 9 -21 -14 -56 -28 -79 -31 -31 -4 -44 -12 -50 -28 -10 -28 -29 -35 -53
-23 -11 6 -30 5 -53 -4 -41 -15 -54 -4 -54 48 0 52 -28 76 -92 82 l-56 4 -10
-33 c-6 -19 -13 -46 -16 -61 -4 -16 -12 -28 -19 -28 -7 0 -37 25 -67 55 -47
48 -59 55 -93 55 -31 0 -45 -7 -68 -31 -27 -29 -31 -30 -106 -28 -43 1 -87 0
-98 -2 -16 -3 -22 4 -30 37 -5 22 -18 52 -27 67 -10 14 -18 30 -18 35 0 15
-55 61 -93 77 -22 9 -42 26 -47 40 -6 17 -17 25 -33 25 -41 0 -74 35 -81 84
-9 59 -36 91 -89 106 -38 10 -49 10 -76 -5 -49 -25 -82 -16 -110 28 -23 34
-48 46 -64 30z"/>
</g>
</svg>
