<?xml version="1.0" standalone="no"?>
<!DOCTYPE svg PUBLIC "-//W3C//DTD SVG 20010904//EN"
 "http://www.w3.org/TR/2001/REC-SVG-20010904/DTD/svg10.dtd">
<svg version="1.0" xmlns="http://www.w3.org/2000/svg"
 width="340.000000pt" height="223.000000pt" viewBox="0 0 340.000000 223.000000"
 preserveAspectRatio="xMidYMid meet">
<metadata>
Created by potrace 1.16, written by Peter Selinger 2001-2019
</metadata>
<g transform="translate(0.000000,223.000000) scale(0.100000,-0.100000)"
fill="#000000" stroke="none">
<path d="M2156 2207 c-12 -12 -27 -31 -33 -41 -10 -19 -12 -18 -45 2 -45 28
-64 28 -79 0 -6 -13 -18 -31 -27 -40 -14 -17 -17 -16 -49 12 -18 17 -39 30
-45 30 -6 0 -31 -11 -55 -25 -42 -25 -43 -27 -43 -76 0 -56 -18 -73 -49 -45
-25 23 -48 20 -67 -9 -18 -27 -34 -31 -51 -14 -8 8 -6 19 6 40 14 26 15 31 1
56 -23 41 -51 40 -89 -3 l-32 -36 -23 21 c-34 32 -44 26 -52 -35 -4 -33 -12
-58 -20 -61 -19 -7 -62 23 -76 52 -17 38 -41 39 -119 5 -76 -32 -74 -32 -100
13 -5 9 -17 17 -25 17 -16 0 -44 -56 -44 -89 0 -11 -13 -30 -29 -43 -25 -19
-31 -34 -40 -95 -6 -39 -11 -91 -11 -114 0 -34 -6 -47 -35 -73 -38 -35 -46
-74 -20 -100 9 -8 15 -35 16 -63 2 -92 9 -107 53 -113 49 -6 58 -27 17 -43
-21 -8 -31 -19 -33 -36 -2 -17 -10 -27 -23 -30 -11 -2 -38 -17 -61 -33 -37
-26 -46 -28 -91 -22 -45 6 -52 4 -62 -14 -6 -11 -11 -31 -11 -44 0 -30 -17
-48 -47 -48 -14 0 -23 -6 -23 -15 0 -27 -24 -15 -53 25 -33 47 -48 49 -89 15
-28 -24 -32 -25 -49 -10 -25 24 -50 15 -77 -25 -19 -28 -31 -36 -65 -40 -31
-4 -45 -11 -52 -28 -5 -13 -20 -25 -32 -29 -26 -6 -29 -19 -9 -42 19 -22 30
-195 13 -208 -6 -5 -41 -15 -77 -21 -60 -11 -66 -10 -87 9 -12 12 -29 19 -37
16 -24 -10 -30 -52 -11 -81 32 -48 70 -67 137 -70 54 -2 63 -5 67 -21 5 -29
18 -42 49 -48 22 -4 33 -17 51 -57 l23 -51 -26 -38 c-17 -24 -26 -50 -26 -75
0 -34 -7 -46 -65 -102 -58 -57 -65 -68 -65 -104 0 -46 21 -65 85 -75 22 -3 57
-13 78 -22 30 -13 42 -14 63 -5 14 7 42 12 63 12 37 0 71 23 71 47 0 19 37 43
68 43 27 0 35 6 51 39 32 61 70 101 97 101 20 0 29 10 48 50 13 27 29 56 36
65 13 16 65 22 56 6 -4 -5 -3 -16 0 -25 8 -21 103 -22 159 -1 65 23 112 19
139 -12 30 -35 56 -26 56 20 0 23 -8 41 -26 58 -37 33 -52 73 -45 117 5 32 10
37 36 40 17 2 36 8 43 14 19 16 14 72 -8 101 -11 14 -20 31 -20 39 0 27 21 88
36 103 14 13 20 11 61 -20 25 -19 49 -35 52 -35 3 0 20 9 36 20 48 32 69 26
109 -30 40 -56 54 -60 128 -35 38 13 48 22 61 55 15 38 16 39 45 28 25 -10 35
-9 56 5 37 25 50 21 69 -18 19 -40 48 -46 70 -15 13 19 16 19 50 5 49 -20 74
-19 87 5 6 11 18 20 28 20 25 0 110 -85 118 -117 26 -114 32 -120 95 -87 40
20 55 13 63 -30 4 -22 13 -36 21 -36 15 0 20 14 29 83 8 58 22 70 76 63 33 -4
52 -2 69 10 18 13 28 14 47 5 14 -6 41 -11 60 -11 24 0 36 -5 40 -17 16 -51
33 -68 76 -74 129 -18 196 -20 211 -4 9 8 20 15 26 15 6 0 16 9 23 20 7 11 22
20 34 20 12 0 25 10 32 25 6 14 18 25 26 25 40 0 92 113 67 144 -14 16 5 26
49 26 15 0 33 7 40 15 7 8 27 15 44 15 47 0 62 14 49 42 -5 13 -7 32 -2 43 15
40 10 72 -16 89 -13 9 -31 16 -38 16 -8 0 -20 7 -27 15 -7 8 -31 20 -53 26
-57 15 -107 67 -107 111 0 22 7 42 20 53 12 11 20 28 18 39 -2 17 -10 21 -40
21 -23 0 -45 8 -60 21 -13 12 -34 25 -48 29 -14 4 -42 19 -63 33 -37 25 -40
25 -95 13 -75 -17 -165 -25 -197 -17 l-25 6 21 42 c18 35 39 139 52 253 2 17
-4 20 -41 21 -26 1 -48 7 -55 17 -20 26 -80 57 -111 57 -39 0 -139 63 -180
113 -53 66 -79 124 -72 162 10 51 -40 125 -84 125 -6 0 -21 -10 -34 -23z"/>
</g>
</svg>
